HIERARCHY
ROOT Hips
{
	OFFSET 0.000000 0.000000 0.000000
	CHANNELS 6 Xposition Yposition Zposition Xrotation Yrotation Zrotation
	JOINT LeftUpLeg_virtual
	{
		OFFSET 0.000000 0.000000 0.000000
		CHANNELS 3 Xrotation Yrotation Zrotation
		JOINT LeftUpLeg
		{
			OFFSET 15.427100 -6.655098 0.678600
			CHANNELS 3 Xrotation Yrotation Zrotation
			JOINT LeftLeg
			{
				OFFSET 4.081073 -39.591068 13.024000
				CHANNELS 3 Xrotation Yrotation Zrotation
				JOINT LeftFoot
				{
					OFFSET -4.081074 -37.707932 -15.979700
					CHANNELS 3 Xrotation Yrotation Zrotation
					JOINT LeftToeBase
					{
						OFFSET 5.346399 -15.068900 20.645000
						CHANNELS 3 Xrotation Yrotation Zrotation
						JOINT LeftToe_End
						{
							OFFSET 2.754700 0.931300 11.300900
							CHANNELS 3 Xrotation Yrotation Zrotation
							End Site
							{
								OFFSET 0 0 0
							}
						}
					}
				}
			}
		}
	}
	JOINT RightUpLeg_virtual
	{
		OFFSET 0.000000 0.000000 0.000000
		CHANNELS 3 Xrotation Yrotation Zrotation
		JOINT RightUpLeg
		{
			OFFSET -15.569500 -6.655098 0.678600
			CHANNELS 3 Xrotation Yrotation Zrotation
			JOINT RightLeg
			{
				OFFSET -4.081825 -39.591045 13.023800
				CHANNELS 3 Xrotation Yrotation Zrotation
				JOINT RightFoot
				{
					OFFSET 4.081824 -37.707954 -15.979600
					CHANNELS 3 Xrotation Yrotation Zrotation
					JOINT RightToeBase
					{
						OFFSET -5.346400 -15.068900 20.645000
						CHANNELS 3 Xrotation Yrotation Zrotation
						JOINT RightToe_End
						{
							OFFSET -2.754700 0.931300 11.300900
							CHANNELS 3 Xrotation Yrotation Zrotation
							End Site
							{
								OFFSET 0 0 0
							}
						}
					}
				}
			}
		}
	}
	JOINT Spine_virtual
	{
		OFFSET 0.000000 0.000000 0.000000
		CHANNELS 3 Xrotation Yrotation Zrotation
		JOINT Spine
		{
			OFFSET -0.279200 12.230698 -2.892100
			CHANNELS 3 Xrotation Yrotation Zrotation
			JOINT Spine1
			{
				OFFSET -0.232667 10.192268 -1.242267
				CHANNELS 3 Xrotation Yrotation Zrotation
				JOINT Spine1_split
				{
					OFFSET -0.232667 10.192268 -1.242267
					CHANNELS 3 Xrotation Yrotation Zrotation
					JOINT Spine2
					{
						OFFSET -0.232667 10.192268 -1.242267
						CHANNELS 3 Xrotation Yrotation Zrotation
						JOINT Neck_virtual
						{
							OFFSET 0.000000 0.000000 0.000000
							CHANNELS 3 Xrotation Yrotation Zrotation
							JOINT Neck
							{
								OFFSET -0.418800 17.814194 8.416900
								CHANNELS 3 Xrotation Yrotation Zrotation
								JOINT Head
								{
									OFFSET 0.000000 7.031097 3.806800
									CHANNELS 3 Xrotation Yrotation Zrotation
									JOINT HeadTop_End
									{
										OFFSET 0.000000 24.646606 12.978600
										CHANNELS 3 Xrotation Yrotation Zrotation
										End Site
										{
											OFFSET 0 0 0
										}
									}
								}
							}
						}
						JOINT LeftShoulder_virtual
						{
							OFFSET 0.000000 0.000000 0.000000
							CHANNELS 3 Xrotation Yrotation Zrotation
							JOINT LeftShoulder
							{
								OFFSET 8.476499 7.247704 -3.868750
								CHANNELS 3 Xrotation Yrotation Zrotation
								JOINT LeftShoulder_split
								{
									OFFSET 8.476499 7.247704 -3.868750
									CHANNELS 3 Xrotation Yrotation Zrotation
									JOINT LeftArm
									{
										OFFSET 9.308998 -2.777710 0.208600
										CHANNELS 3 Xrotation Yrotation Zrotation
										JOINT LeftForeArm
										{
											OFFSET 29.972298 0.000000 0.000000
											CHANNELS 3 Xrotation Yrotation Zrotation
											JOINT LeftHand
											{
												OFFSET 26.026505 0.000000 0.000000
												CHANNELS 3 Xrotation Yrotation Zrotation
												End Site
												{
													OFFSET 0 0 0
												}
											}
										}
									}
								}
							}
						}
						JOINT RightShoulder_virtual
						{
							OFFSET 0.000000 0.000000 0.000000
							CHANNELS 3 Xrotation Yrotation Zrotation
							JOINT RightShoulder
							{
								OFFSET -7.570500 7.247704 -3.868750
								CHANNELS 3 Xrotation Yrotation Zrotation
								JOINT RightShoulder_split
								{
									OFFSET -7.570500 7.247704 -3.868750
									CHANNELS 3 Xrotation Yrotation Zrotation
									JOINT RightArm
									{
										OFFSET -9.308998 -2.777710 0.208500
										CHANNELS 3 Xrotation Yrotation Zrotation
										JOINT RightForeArm
										{
											OFFSET -29.972300 0.000000 0.000000
											CHANNELS 3 Xrotation Yrotation Zrotation
											JOINT RightHand
											{
												OFFSET -26.026505 0.000000 0.000000
												CHANNELS 3 Xrotation Yrotation Zrotation
												End Site
												{
													OFFSET 0 0 0
												}
											}
										}
									}
								}
							}
						}
					}
				}
			}
		}
	}
}
MOTION
Frames: 10
Frame Time: 0.03333333
-0.317135 79.248260 0.479208 0.000000 0.000000 0.000000 15.295836 -57.235602 14.175642 -50.281346 8.290398 30.016701 44.514651 -9.346497 -6.130537 1.238385 -2.343087 -4.234534 -0.118275 0.024715 0.307925 0.000000 0.000000 0.000000 16.327847 -58.527269 15.681730 -26.376802 -3.358062 -24.706503 51.125612 8.971988 0.563191 -30.641154 -7.989018 10.449430 4.232788 0.400334 1.017033 0.000000 0.000000 0.000000 16.014767 -58.135360 14.007378 5.967743 2.000193 -2.977240 -3.805985 5.383515 -3.933561 0.373897 -3.657361 1.055164 0.000000 0.000000 0.000000 -1.593401 4.739940 -3.476118 -16.085961 9.450105 4.510114 2.863293 31.978717 0.469437 0.000000 0.000000 0.000000 -3.223055 5.004138 -3.621353 -31.384057 12.092313 5.198447 -7.441543 6.942883 -5.525188 36.373787 -18.632464 -36.284577 -31.005050 -85.022284 -30.804461 0.000000 0.000000 0.000000 -4.178536 4.530733 -3.649810 3.295228 13.112724 11.154788 -7.745919 2.362023 -0.696291 7.764829 4.467798 65.717751 13.250908 68.225585 -15.931276 0.000000 0.000000 0.000000 
-0.292235 79.360596 0.769354 0.000000 0.000000 0.000000 15.022236 -57.293375 13.924024 -50.290942 8.747590 30.251085 44.125908 -9.182702 -6.331490 0.918672 -2.428489 -4.148814 -0.063053 -0.024700 0.396343 0.000000 0.000000 0.000000 16.174979 -58.677506 15.438900 -25.956843 -3.416146 -24.542246 50.781746 8.821578 0.561334 -30.864812 -8.000715 10.231676 3.975184 0.392522 1.052051 0.000000 0.000000 0.000000 16.124775 -58.289524 14.134050 6.032914 2.063148 -3.157698 -3.716046 5.366458 -3.974093 0.891020 -3.432863 1.109104 0.000000 0.000000 0.000000 -1.375262 4.770726 -3.545172 -15.582889 9.919307 4.441066 2.555504 31.936312 0.563058 0.000000 0.000000 0.000000 -2.833475 4.969467 -3.545269 -31.458120 11.636469 5.203653 -6.723231 5.454030 -5.087214 36.647735 -20.348623 -36.452030 -29.504204 -84.502137 -29.116038 0.000000 0.000000 0.000000 -3.941773 4.513938 -3.662983 3.316653 13.162615 11.779318 -8.696345 2.891009 -0.204283 9.060133 4.135239 65.767823 12.199029 67.828013 -14.799888 0.000000 0.000000 0.000000 
-0.220916 79.548820 0.942848 0.000000 0.000000 0.000000 14.604804 -57.393595 13.427532 -49.805043 9.240755 30.435036 43.294284 -9.062371 -6.541174 0.454019 -2.532571 -4.082522 0.148852 -0.113657 0.417233 0.000000 0.000000 0.000000 15.650018 -58.691214 14.771052 -25.227048 -3.785262 -24.249557 50.291181 8.582330 0.506099 -31.392260 -8.069865 9.930023 3.553192 0.359710 1.103583 0.000000 0.000000 0.000000 15.757887 -58.204782 13.900228 6.224476 2.079875 -3.401355 -3.596452 5.463320 -4.052987 1.127617 -3.332672 1.273486 0.000000 0.000000 0.000000 -1.230773 4.896228 -3.712861 -15.120077 10.576217 4.463076 1.737181 32.162804 0.978570 0.000000 0.000000 0.000000 -2.512161 5.087180 -3.561312 -31.509275 10.719792 5.013591 -5.503194 4.059693 -4.689648 37.054767 -22.532931 -36.187544 -20.975395 -82.360252 -20.578397 0.000000 0.000000 0.000000 -3.492002 4.608183 -3.779966 3.223133 12.908230 12.406208 -8.973593 3.061452 -0.177504 10.517655 5.217288 64.966546 10.886986 67.887388 -13.613992 0.000000 0.000000 0.000000 
-0.102901 79.755005 0.988598 0.000000 0.000000 0.000000 14.041034 -57.359416 12.720761 -49.051748 9.664496 30.576834 42.435863 -9.009565 -6.781924 -0.090233 -2.653046 -3.990987 0.471225 -0.231701 0.362986 0.000000 0.000000 0.000000 14.903036 -58.533540 13.891421 -24.436854 -4.275724 -23.974826 49.690104 8.355819 0.412666 -32.052951 -8.165773 9.712619 3.098305 0.308792 1.142377 0.000000 0.000000 0.000000 15.039100 -57.844790 13.408145 6.495422 1.956635 -3.573081 -3.466025 5.639882 -4.125407 0.857658 -3.278456 1.389139 0.000000 0.000000 0.000000 -1.190508 5.051906 -3.872370 -14.832347 11.431836 4.554605 0.773870 32.707064 1.342667 0.000000 0.000000 0.000000 -2.231292 5.273987 -3.634718 -31.505935 9.577378 4.697752 -4.489167 3.249322 -4.648421 37.339545 -24.533355 -35.844553 -13.975688 -78.816544 -13.640351 0.000000 0.000000 0.000000 -2.887593 4.773990 -3.948708 3.039552 12.433630 12.956233 -8.840684 2.966289 -0.229224 12.131671 7.411343 63.113011 9.470982 68.296414 -12.569545 0.000000 0.000000 0.000000 
-0.031511 79.994164 0.947422 0.000000 0.000000 0.000000 13.373939 -57.209972 11.891703 -48.288201 9.920817 30.701588 41.861256 -8.992911 -7.119865 -0.572141 -2.786276 -3.847023 0.770360 -0.357865 0.251011 0.000000 0.000000 0.000000 14.056587 -58.145134 12.972048 -23.719010 -4.709890 -23.782799 49.124179 8.277529 0.290601 -32.635091 -8.210441 9.800586 2.613535 0.247680 1.138612 0.000000 0.000000 0.000000 14.089114 -57.185185 12.695898 6.789664 1.611418 -3.561628 -3.336163 5.839643 -4.159311 0.469261 -3.456748 1.150932 0.000000 0.000000 0.000000 -1.234767 5.173483 -3.909698 -14.554938 12.507971 4.655734 -0.039703 33.592325 1.336442 0.000000 0.000000 0.000000 -2.012376 5.441350 -3.713194 -31.451211 8.407945 4.166488 -4.178511 3.133782 -5.024961 37.467153 -25.917984 -35.697891 -10.327226 -74.887096 -10.017016 0.000000 0.000000 0.000000 -2.247022 4.933531 -4.070855 2.864051 11.915817 13.358077 -8.398458 2.893588 -0.193859 13.929764 10.401528 60.228239 7.979504 68.895968 -11.603236 0.000000 0.000000 0.000000 
-0.092716 80.205719 0.837467 0.000000 0.000000 0.000000 12.666129 -56.995897 11.041857 -47.798388 9.903972 30.897764 41.757864 -8.986974 -7.614990 -0.771561 -2.927641 -3.627475 0.879070 -0.482525 0.111017 0.000000 0.000000 0.000000 13.255018 -57.668312 12.123311 -23.126763 -4.987517 -23.634346 48.735883 8.356171 0.192100 -33.066418 -8.200513 10.169607 2.198926 0.188082 1.093494 0.000000 0.000000 0.000000 13.111660 -56.368967 11.927216 7.048132 0.990528 -3.294816 -3.283618 6.011311 -4.136567 0.322483 -3.475194 0.651974 0.000000 0.000000 0.000000 -1.378414 5.234858 -3.759647 -14.155161 13.760073 4.749409 -0.374580 34.718654 0.773751 0.000000 0.000000 0.000000 -1.804438 5.549038 -3.754704 -31.347153 7.326637 3.492237 -4.283712 3.360222 -5.812967 37.622717 -26.413134 -35.933396 -8.652688 -71.680199 -8.343701 0.000000 0.000000 0.000000 -1.633908 5.060395 -4.087385 2.777473 11.541687 13.509204 -7.874089 3.021995 0.015251 15.871440 13.735466 56.557095 6.391934 69.499565 -10.588476 0.000000 0.000000 0.000000 
-0.346504 80.329353 0.738903 0.000000 0.000000 0.000000 11.992604 -56.763834 10.244286 -47.726517 9.602146 31.200226 42.117057 -8.871108 -8.226104 -0.577227 -3.022471 -3.299900 0.906956 -0.595270 -0.060858 0.000000 0.000000 0.000000 12.547656 -57.222505 11.383152 -22.626877 -5.123187 -23.501788 48.584341 8.494367 0.142620 -33.481075 -8.200580 10.573854 2.056140 0.148083 1.061682 0.000000 0.000000 0.000000 12.285039 -55.528728 11.155349 7.238802 0.252319 -2.818043 -3.222993 6.182165 -4.035790 0.510804 -3.312661 0.379962 0.000000 0.000000 0.000000 -1.615848 5.283042 -3.375046 -13.624395 15.111191 4.865537 -0.344695 35.981563 -0.196914 0.000000 0.000000 0.000000 -1.578912 5.624473 -3.672532 -31.233690 6.335741 2.967974 -4.937561 3.501114 -7.110267 38.086395 -25.962415 -36.538821 -8.383448 -69.687833 -8.028860 0.000000 0.000000 0.000000 -1.226771 5.162969 -3.951681 2.733842 11.423901 13.603877 -7.494843 3.269958 0.358212 17.744213 17.051151 52.487729 4.384347 69.779029 -9.059671 0.000000 0.000000 0.000000 
-0.783600 80.356926 0.679453 0.000000 0.000000 0.000000 11.378239 -56.504000 9.499299 -48.082087 9.060389 31.555276 42.783332 -8.587246 -8.845442 -0.034686 -3.066635 -2.876691 1.015946 -0.700601 -0.235561 0.000000 0.000000 0.000000 11.942847 -56.813889 10.695044 -22.230022 -5.191067 -23.389961 48.630988 8.633722 0.152317 -34.011842 -8.213185 10.833033 2.237424 0.134155 1.088088 0.000000 0.000000 0.000000 11.713381 -54.719504 10.328969 7.418100 -0.376793 -2.206562 -3.150523 6.419530 -3.874934 0.786704 -3.508343 0.454187 0.000000 0.000000 0.000000 -1.823237 5.408705 -2.842262 -12.963524 16.378071 5.043605 -0.077321 36.959257 -1.306886 0.000000 0.000000 0.000000 -1.462821 5.777593 -3.454929 -31.248529 5.340642 2.721896 -5.893977 3.680071 -8.334917 38.900287 -24.923709 -37.236139 -8.773783 -68.868217 -8.423820 0.000000 0.000000 0.000000 -1.091397 5.318654 -3.704790 2.681980 11.484298 13.778237 -7.228323 3.419852 0.540626 19.139353 19.999480 48.516012 1.764233 69.184031 -6.742481 0.000000 0.000000 0.000000 
-1.293960 80.239708 0.689413 0.000000 0.000000 0.000000 10.808884 -56.128572 8.814719 -48.741924 8.362939 31.854565 43.497213 -8.180868 -9.377211 0.608861 -3.140696 -2.504537 1.242664 -0.805408 -0.379957 0.000000 0.000000 0.000000 11.354261 -56.336456 9.984019 -22.011929 -5.176111 -23.459152 48.885979 8.821079 0.237485 -34.557957 -8.237346 10.962220 2.696260 0.156658 1.168745 0.000000 0.000000 0.000000 11.404013 -54.085468 9.516164 7.664036 -0.656087 -1.585368 -3.034771 6.786817 -3.699052 1.199693 -3.804391 0.664593 0.000000 0.000000 0.000000 -1.916273 5.704855 -2.330916 -12.382287 17.377217 5.353415 0.275830 37.210307 -2.137157 0.000000 0.000000 0.000000 -1.501749 6.131798 -3.184029 -31.494999 4.143874 2.951386 -6.562151 3.872056 -9.189736 39.755222 -23.670161 -37.774317 -9.350495 -68.715938 -9.084135 0.000000 0.000000 0.000000 -1.145584 5.617191 -3.457405 2.568713 11.591690 14.173883 -7.114009 3.180807 0.253456 19.754265 22.348662 45.073484 -1.017138 67.092859 -4.035606 0.000000 0.000000 0.000000 
-1.818179 79.971848 0.765129 0.000000 0.000000 0.000000 10.279001 -55.569121 8.229141 -49.481162 7.552284 31.948288 44.111527 -7.753144 -9.735591 1.116189 -3.326979 -2.352577 1.570517 -0.909740 -0.484633 0.000000 0.000000 0.000000 10.838359 -55.745822 9.391370 -22.056021 -5.081557 -23.831758 49.348889 9.108714 0.400602 -34.775181 -8.336849 11.190485 3.276257 0.216420 1.265905 0.000000 0.000000 0.000000 11.221553 -53.509351 8.703467 8.014788 -0.381936 -1.130238 -2.812157 7.306713 -3.569359 1.430063 -4.406922 1.032633 0.000000 0.000000 0.000000 -1.826602 6.191006 -1.982930 -12.089571 17.908336 5.748444 0.461448 36.319941 -2.309464 0.000000 0.000000 0.000000 -1.629540 6.694597 -2.936428 -31.905405 2.560289 3.660531 -6.948943 4.394475 -9.912924 40.109456 -22.672661 -37.867279 -9.790498 -68.381614 -9.619134 0.000000 0.000000 0.000000 -1.298518 6.069351 -3.290480 2.361604 11.739229 14.882178 -6.917603 2.279803 -0.280829 19.335202 24.220196 42.686490 -3.072987 62.626933 -1.793594 0.000000 0.000000 0.000000 
